<svg viewBox="0 0 12 12" xmlns="http://www.w3.org/2000/svg">
    <path fill-rule="evenodd" clip-rule="evenodd"
        d="M6.53033 0.21967C6.23744 -0.0732233 5.76256 -0.0732233 5.46967 0.21967C5.17678 0.512563 5.17678 0.987437 5.46967 1.28033L9.43934 5.25H0.75C0.335786 5.25 0 5.58579 0 6C0 6.41421 0.335786 6.75 0.75 6.75H9.43934L5.46967 10.7197C5.17678 11.0126 5.17678 11.4874 5.46967 11.7803C5.76256 12.0732 6.23744 12.0732 6.53033 11.7803L11.7798 6.53086C11.7816 6.52906 11.7834 6.52724 11.7852 6.52541C11.9176 6.39059 11.9994 6.20598 12 6.00225C12 6.0015 12 6.00075 12 6C12 5.99925 12 5.9985 12 5.99775C11.9997 5.89688 11.9795 5.80069 11.9431 5.71291C11.9073 5.62646 11.8547 5.54535 11.7852 5.47459C11.7834 5.47279 11.7817 5.47099 11.7799 5.46921M6.53033 0.21967L11.7799 5.46921L6.53033 0.21967Z" />
</svg>